PathFileType	4	(X/Y/Z)	C:\Users\Basilio\Documents\Thesis Gigler\squatting_fais\c3dfiles\039\SJ_pre3\markers_experimental.trc
DataRate	CameraRate	NumFrames	NumMarkers	Units	OrigDataRate	OrigDataStartFrame	OrigNumFrames
200.000000	200.000000	4	63	mm	200.000000	660	1760
Frame#	Time	FHD			LBHD			RBHD			C7			T10			CLAV			LSHO			LUUPA			LMUPA			LDUPA			LLEP			LMEP			LRAD			LUL			LRFIN			RSHO			RUPA1			RMUPA			RDUPA			RLEP			RMEP			RRAD			RUL			RUFIN			LASI			RASI			USACR			LSACR			RSACR			LTHI1			LTHI2			LTHI3			LTHI4			LLFC			LMFC			LTIB1			LTIB2			LTIB3			LTIB4			LLMAL			LMMAL			LHEE			LMT1			LMT2			LMT5			RTHI			RTHI2			RTHI3			RTHI4			RLFC			RMFC			RTIB1			RTIB2			RTIB3			RTIB4			RLMAL			RMMAL			RHEE			RMT1			RMT2			RMT5			*61			*62			
		X1	Y1	Z1	X2	Y2	Z2	X3	Y3	Z3	X4	Y4	Z4	X5	Y5	Z5	X6	Y6	Z6	X7	Y7	Z7	X8	Y8	Z8	X9	Y9	Z9	X10	Y10	Z10	X11	Y11	Z11	X12	Y12	Z12	X13	Y13	Z13	X14	Y14	Z14	X15	Y15	Z15	X16	Y16	Z16	X17	Y17	Z17	X18	Y18	Z18	X19	Y19	Z19	X20	Y20	Z20	X21	Y21	Z21	X22	Y22	Z22	X23	Y23	Z23	X24	Y24	Z24	X25	Y25	Z25	X26	Y26	Z26	X27	Y27	Z27	X28	Y28	Z28	X29	Y29	Z29	X30	Y30	Z30	X31	Y31	Z31	X32	Y32	Z32	X33	Y33	Z33	X34	Y34	Z34	X35	Y35	Z35	X36	Y36	Z36	X37	Y37	Z37	X38	Y38	Z38	X39	Y39	Z39	X40	Y40	Z40	X41	Y41	Z41	X42	Y42	Z42	X43	Y43	Z43	X44	Y44	Z44	X45	Y45	Z45	X46	Y46	Z46	X47	Y47	Z47	X48	Y48	Z48	X49	Y49	Z49	X50	Y50	Z50	X51	Y51	Z51	X52	Y52	Z52	X53	Y53	Z53	X54	Y54	Z54	X55	Y55	Z55	X56	Y56	Z56	X57	Y57	Z57	X58	Y58	Z58	X59	Y59	Z59	X60	Y60	Z60	X61	Y61	Z61	X62	Y62	Z62	X63	Y63	Z63	

661	3.3	1.63368308544159	1497.822998046875	-821.220886230469	-146.0478515625	1463.739501953125	-952.165466308594	-129.8836059570313	1473.906860351563	-812.5613403320315	-208.6916046142579	1369.0205078125	-889.3048095703127	-397.8395996093751	1117.838500976563	-892.0061645507815	-123.7086257934571	1233.758056640625	-886.842712402344	-135.6084289550782	1304.598022460938	-1072.741821289063	-260.5390930175782	1229.9287109375	-1247.808715820313	-247.1760559082032	1180.063354492188	-1247.593139648438	-287.6091918945313	1182.631225585938	-1292.377319335938	-318.2009277343751	1124.308227539063	-1321.846801757813	-396.0613403320314	1154.69677734375	-1289.827758789063	-452.2545166015626	931.243347167969	-1145.847412109375	-410.9326171875001	886.7317504882815	-1190.524291992188	-412.6492614746095	922.1873779296877	-1090.6533203125	-128.4390106201172	1292.501342773438	-699.9868164062501	-276.1306762695313	1254.004272460938	-542.1252441406251	-268.2039184570313	1205.733764648438	-529.8591308593751	-314.5875854492188	1219.11669921875	-494.0603332519532	-343.5156250000001	1160.932983398438	-463.0110778808595	-418.8092651367189	1192.160522460938	-501.8866271972657	-430.1560974121095	975.500915527344	-681.4312133789064	-428.6600952148439	923.932556152344	-625.3984985351564	-383.0733642578126	938.8181762695315	-727.6454467773439	-357.5745544433594	885.4876098632815	-1011.87451171875	-356.6316223144532	875.4188232421877	-798.5850830078127	-490.7845458984376	1017.031311035156	-892.5877075195315	-514.3951416015626	995.0002441406252	-921.0567016601565	-512.5585937500001	992.738464355469	-862.394226074219	-348.3861389160157	681.8222045898439	-1113.873168945313	-275.9878845214844	638.2610473632814	-1125.822998046875	-235.9568328857422	665.2124023437501	-1121.546875	-266.0811462402344	578.3809204101564	-1110.382568359375	-202.2748718261719	493.8483886718751	-1113.963989257813	-161.1259307861328	475.3882446289064	-1005.377319335938	-160.955078125	348.5911254882813	-1095.682250976563	-237.6469116210938	327.7246704101563	-1135.48486328125	-201.8749694824219	314.0306091308594	-1116.28466796875	-223.5168457031251	238.0924987792969	-1075.098266601563	-337.1557617187501	97.18066406250003	-1102.06201171875	-314.3530578613282	92.0412063598633	-1016.766784667969	-409.256805419922	41.89432525634766	-1059.911376953125	-174.4585266113282	55.5711135864258	-1070.775146484375	-185.2713012695313	55.33119964599611	-1112.797729492188	-234.5293731689454	31.60825347900391	-1159.705078125	-335.5004882812501	698.5726928710939	-683.9613647460939	-271.9185485839844	679.0936889648439	-671.4287719726564	-246.4966430664063	699.7633666992189	-679.4967651367189	-246.4766387939454	598.4330444335939	-663.8325195312501	-206.1279907226563	480.9678955078126	-673.1072998046876	-166.9373931884766	473.6341552734376	-779.820983886719	-206.7601623535157	279.4640502929688	-687.3889770507814	-303.9490051269532	234.1409149169922	-681.5521850585939	-260.3735351562501	216.0992279052735	-682.5868530273439	-252.5550689697266	163.9154510498047	-710.6110839843751	-338.8731079101563	90.4011688232422	-692.3778076171876	-302.6847839355469	97.17989349365237	-775.8067016601565	-405.6442871093751	40.0683937072754	-745.2840576171876	-172.2986602783203	50.49895477294923	-715.6854858398439	-184.519287109375	58.25686264038087	-671.9478759765626	-242.6334381103516	32.51810836791993	-626.3660278320314	nan	nan	nan	nan	nan	nan	
662	3.305	2.445571422576905	1496.536743164063	-821.365417480469	-146.025146484375	1462.517456054688	-951.5780029296877	-129.1406707763672	1472.628295898438	-812.4326171875002	-207.8525695800782	1367.924926757813	-889.5162353515627	-397.6785888671876	1117.0830078125	-892.087585449219	-123.1892471313477	1232.721435546875	-886.9758911132815	-134.7280731201172	1303.042358398438	-1072.667846679688	-260.0103454589844	1228.99755859375	-1247.952270507813	-246.0786437988282	1179.973266601563	-1248.083251953125	-286.9918212890626	1181.604370117188	-1292.437622070313	-317.6552734375001	1123.331909179688	-1321.91259765625	-395.6315002441407	1154.028198242188	-1289.838500976563	-452.3531799316407	930.6458740234377	-1145.888061523438	-410.7729797363282	886.0955200195315	-1190.418334960938	-412.6658325195314	921.5515136718752	-1090.693725585938	-127.937614440918	1291.528442382813	-700.1461791992189	-275.6573181152344	1253.214599609375	-542.1762084960939	-267.5783691406251	1204.841552734375	-530.0935668945314	-314.2072143554688	1218.388427734375	-494.1638793945314	-343.4653930664063	1159.940673828125	-463.0406799316407	-418.933319091797	1191.639038085938	-501.6941528320314	-430.1861572265626	974.8497314453127	-681.4254150390626	-428.7767944335939	923.303894042969	-625.5248413085939	-383.3301086425782	937.7476196289065	-727.6112670898439	-357.7440490722657	884.8732910156252	-1011.870239257813	-356.8935852050782	874.4664306640627	-798.625183105469	-490.729461669922	1017.063537597656	-892.916442871094	-514.3062744140626	994.4730224609377	-921.1412353515627	-512.5380249023439	992.2122802734377	-862.4634399414065	-348.4125061035157	681.4402465820314	-1113.93017578125	-275.8865966796876	638.0305786132814	-1125.826293945313	-235.7734985351563	664.8778076171876	-1121.505981445313	-265.8908691406251	578.1729125976564	-1110.4501953125	-201.7732391357422	493.7454833984376	-1113.782470703125	-160.9154815673828	475.4091186523439	-1005.335632324219	-160.7283782958985	348.4347229003907	-1095.651977539063	-237.5070190429688	327.0468444824219	-1135.541381835938	-201.6926879882813	314.0741271972657	-1116.306518554688	-223.3640441894532	238.0108642578126	-1075.144775390625	-337.1235961914063	97.14673614501956	-1102.07568359375	-314.3605041503907	92.02947998046876	-1016.725524902344	-409.2202453613282	41.99232864379884	-1059.87744140625	-174.40966796875	55.52613067626955	-1070.71875	-185.3344268798828	55.38798141479494	-1112.816162109375	-234.5156707763672	31.60546875000001	-1159.699462890625	-335.5852050781251	698.3918457031251	-683.8727416992189	-272.0578308105469	678.8896484375001	-671.4537353515626	-246.6160278320313	699.5579833984376	-679.6175537109376	-246.4879455566407	598.3362426757814	-663.8702392578126	-206.0760650634766	481.1489562988282	-673.2494506835939	-166.7345123291016	473.569549560547	-779.8787231445315	-206.7044219970704	279.4606628417969	-687.4505615234376	-303.8478393554688	234.1940307617188	-681.5527343750001	-260.2670593261719	216.0368804931641	-682.5926513671876	-252.4861145019532	163.9534606933594	-710.5803222656251	-338.8775634765626	90.40785980224611	-692.3556518554689	-302.6333618164063	97.143424987793	-775.810241699219	-405.6320190429689	40.0739974975586	-745.2728881835939	-172.3251495361328	50.57196426391603	-715.7229614257814	-184.526351928711	58.29518127441408	-671.9458618164064	-242.6222076416016	32.53339004516602	-626.3565673828126	nan	nan	nan	nan	nan	nan	
663	3.31	3.119402408599854	1494.993041992188	-821.3333129882815	-144.2409973144532	1461.282104492188	-952.2492675781252	-128.5286865234375	1471.462158203125	-812.3599853515627	-207.1903839111329	1366.755126953125	-889.5364379882815	-397.4118957519532	1116.403076171875	-892.1649169921877	-122.590934753418	1231.570190429688	-886.954040527344	-134.1237945556641	1302.000122070313	-1072.721801757813	-259.3699951171876	1227.907958984375	-1247.896484375	-245.8182067871094	1178.500854492188	-1247.695678710938	-286.4671630859376	1180.768188476563	-1292.548217773438	-317.2800292968751	1122.413208007813	-1321.97607421875	-394.9544372558595	1153.182250976563	-1289.93701171875	-452.2919311523439	929.821228027344	-1146.07373046875	-410.8343505859376	885.5359497070315	-1190.52001953125	-412.7804565429689	920.9760742187502	-1090.787231445313	-127.4229278564453	1290.339721679688	-700.0068359375001	-275.3757629394532	1252.193359375	-542.2983398437501	-266.9547729492188	1204.233642578125	-530.2869873046876	-313.5826721191407	1217.520385742188	-494.3150634765626	-343.1434936523438	1159.155151367188	-463.1156005859376	-417.7782592773439	1190.876953125	-501.9494628906251	-430.3159179687501	974.179870605469	-681.5169067382814	-428.9763183593751	922.611267089844	-625.6329956054689	-383.2203063964844	937.8247680664065	-727.6303100585939	-357.8871154785157	884.2287597656252	-1012.008850097656	-356.8771667480469	873.684509277344	-798.6894531250002	-490.589569091797	1016.189208984375	-892.9796142578127	-514.2816162109376	994.086853027344	-921.2429199218752	-512.6704711914064	991.668884277344	-862.5242309570315	-348.3726806640626	681.1033935546876	-1113.914672851563	-275.7296447753907	637.7169799804689	-1125.82275390625	-235.6796112060547	664.5634765625001	-1121.451904296875	-265.2282409667969	577.5552368164064	-1110.2880859375	-201.5955200195313	493.6650695800782	-1113.7470703125	-160.6507415771485	475.3748474121095	-1005.30615234375	-160.5267028808594	348.3985900878907	-1095.597290039063	-237.3431243896485	326.9674377441407	-1135.529541015625	-201.4286193847657	314.0552062988282	-1116.385864257813	-223.1783905029297	237.8955841064454	-1075.104614257813	-337.0431518554688	97.10194396972659	-1102.036499023438	-314.3439025878907	91.97730255126955	-1016.704406738281	-409.1712036132814	42.11225509643555	-1059.830932617188	-174.4125061035157	55.54135894775392	-1070.822509765625	-185.341796875	55.38587188720705	-1112.8125	-234.9659881591797	31.91718292236329	-1159.690673828125	-335.6205444335938	698.0770874023439	-683.9085083007814	-272.1701354980469	678.6994018554689	-671.5670166015626	-246.7271728515626	699.3696289062501	-679.7277221679689	-246.4542999267579	598.1387329101564	-663.8679809570314	-205.9296264648438	481.0991210937501	-673.2492675781251	-166.6429901123047	473.4836730957032	-779.8623046875002	-206.6292877197266	279.3811950683594	-687.4408569335939	-303.7500915527344	234.1743469238282	-681.5326538085939	-260.1686706542969	215.9885711669922	-682.6431274414064	-252.4845275878907	163.873046875	-710.6510620117189	-338.9023742675782	90.43721008300783	-692.3750000000001	-302.7469787597657	97.14974212646487	-775.9379882812502	-405.6529235839845	40.10796356201173	-745.2816162109376	-172.312240600586	50.59031677246095	-715.7648315429689	-184.4972839355469	58.25803375244142	-671.9893798828126	-242.6168975830079	32.54133987426759	-626.3521118164064	nan	nan	nan	nan	nan	nan	
664	3.315	3.941256284713746	1493.986083984375	-821.6372680664065	-143.3478546142578	1460.098510742188	-952.403015136719	-127.7358551025391	1470.219848632813	-812.3848266601565	-206.6346740722657	1365.861572265625	-889.533874511719	-397.2322082519532	1115.737060546875	-892.2120361328127	-121.8112487792969	1230.225830078125	-887.072448730469	-133.6373748779297	1301.022827148438	-1072.727294921875	-258.6878356933594	1226.962524414063	-1247.8818359375	-245.3739013671876	1177.472534179688	-1247.701416015625	-285.7997131347657	1179.9228515625	-1292.671142578125	-316.7300415039063	1121.435546875	-1322.033325195313	-394.3996887207032	1152.465576171875	-1290.01318359375	-452.1309814453126	929.2374267578127	-1146.1552734375	-410.871307373047	884.9036254882815	-1190.6064453125	-412.7759704589845	920.403015136719	-1090.774658203125	-126.8183898925782	1289.052490234375	-699.9717407226564	-274.9136962890626	1251.266967773438	-542.2673950195314	-266.5831298828126	1203.16357421875	-530.3264160156251	-313.1001586914063	1216.683471679688	-494.3714599609376	-342.7318420410157	1158.390625	-463.1604003906251	-418.0360107421876	1190.490600585938	-501.769989013672	-430.5174560546876	973.677185058594	-681.6641235351564	-429.0850219726564	922.0276489257815	-625.7285766601564	-383.6053771972657	937.1571044921877	-727.7177124023439	-357.8905944824219	883.3552856445315	-1012.05908203125	-356.8888244628907	873.1001586914065	-798.7676391601565	-490.703826904297	1016.014526367188	-892.9751586914065	-514.1174316406251	993.6763916015627	-921.3555297851565	-512.6243286132814	991.1755981445315	-862.5583496093752	-348.3778381347657	680.7830200195314	-1113.847534179688	-275.7350769042969	637.4991455078126	-1125.892211914063	-235.6455230712891	664.3440551757814	-1121.442016601563	-265.0491333007813	577.2699584960939	-1110.28955078125	-201.3576202392579	493.5566711425782	-1113.719482421875	-160.4787139892578	475.2285156250001	-1005.325988769531	-160.3931732177735	348.2384338378907	-1095.653686523438	-237.0545501708985	327.4291076660157	-1135.516235351563	-201.2509002685547	313.9776611328126	-1116.3779296875	-223.1106567382813	237.8531951904297	-1075.174560546875	-337.0601196289063	97.14810943603518	-1102.027465820313	-314.2813720703126	91.97190093994142	-1016.655395507813	-409.1452636718751	42.11317443847657	-1059.871459960938	-174.440414428711	55.685115814209	-1070.73681640625	-185.2955322265625	55.39588928222658	-1112.790283203125	-234.934310913086	31.93489646911622	-1159.693603515625	-335.6631469726563	697.8118286132814	-683.9376831054689	-272.2861938476563	678.6890258789064	-671.7789306640626	-246.9091339111329	699.0897827148439	-679.8850097656251	-246.4228515625001	598.0118408203126	-663.8925170898439	-205.7647094726563	480.983856201172	-673.3367919921876	-166.5373840332032	473.4254455566407	-779.8979492187502	-206.5384674072266	279.2870178222657	-687.4934692382814	-303.6470642089844	234.1056671142579	-681.5648193359376	-260.1671447753907	215.9493408203126	-682.6508789062501	-252.4379577636719	163.8374633789063	-710.7225952148439	-338.8982849121094	90.41443634033205	-692.4050903320314	-302.7246093750001	97.11528015136722	-775.9544067382815	-405.6322631835939	40.11888122558594	-745.2958374023439	-172.2593078613282	50.52796554565431	-715.7094116210939	-184.5193176269532	58.27888488769533	-672.0108032226564	-242.5936584472657	32.55192184448243	-626.3479003906251	nan	nan	nan	nan	nan	nan	
